<svg viewBox="0 0 149.08 218.15" xmlns="http://www.w3.org/2000/svg"><path d="m129.42 54.89a19.74 19.74 0 0 0 -16.61 9.11v-36.85a18.9 18.9 0 0 0 -18.81-18.9 18.47 18.47 0 0 0 -8.28 1.93 18.86 18.86 0 0 0 -33.48 0 18.51 18.51 0 0 0 -8.3-1.92 18.93 18.93 0 0 0 -18.44 14.74 19.32 19.32 0 0 0 -6.61-1.19 18.89 18.89 0 0 0 -18.89 18.83s0 90.22 0 90.22c.61 26.49 6.65 47.42 17.84 62.21 12.64 16.61 31.52 25.07 56.16 25.08 25.6 0 45.06-9.35 57.85-27.81 11.43-16.52 17.25-40 17.25-69.83v-46a19.66 19.66 0 0 0 -19.66-19.65zm12.2 65.6c0 28.24-5.35 50.35-15.91 65.58-11.3 16.33-28.71 24.61-51.71 24.61-22.19 0-39.07-7.48-50.22-22.15-10.13-13.37-15.6-32.59-16.27-57.17 0-.19 0-90.73 0-90.73a11.42 11.42 0 0 1 11.4-11.44 11.6 11.6 0 0 1 6.09 1.81v72.28a3.74 3.74 0 1 0 7.47 0v-76.14a11.38 11.38 0 0 1 17.6-9.61v1.36 75.87a3.72 3.72 0 0 0 7.44.12v-76a12.77 12.77 0 0 1 .79-4.14 11.58 11.58 0 0 1 10.7-7.27 11.42 11.42 0 0 1 10.66 7.39 18.75 18.75 0 0 0 -4.55 12.28v67.29a3.72 3.72 0 0 0 7.44 0v-67.29a11.44 11.44 0 0 1 3.73-8.44 11.24 11.24 0 0 1 7.69-3 11.46 11.46 0 0 1 11.43 11.45v71.28a3 3 0 0 0 .09.73 5.87 5.87 0 0 0 11.7-.73v-23.89a12.22 12.22 0 1 1 24.44 0z" fill="#ffba00"/><path d="m129.42 54.89a19.74 19.74 0 0 0 -16.61 9.11v-36.85a18.9 18.9 0 0 0 -18.81-18.9 18.47 18.47 0 0 0 -8.28 1.93 18.86 18.86 0 0 0 -33.48 0 18.51 18.51 0 0 0 -8.3-1.92 18.93 18.93 0 0 0 -18.44 14.74 19.32 19.32 0 0 0 -6.61-1.19 18.89 18.89 0 0 0 -18.89 18.83s0 90.22 0 90.22c.61 26.49 6.65 47.42 17.84 62.21 12.64 16.61 31.52 25.07 56.16 25.08 25.6 0 45.06-9.35 57.85-27.81 11.43-16.52 17.25-40 17.25-69.83v-46a19.66 19.66 0 0 0 -19.66-19.65zm12.2 65.6c0 28.24-5.35 50.35-15.91 65.58-11.3 16.33-28.71 24.61-51.71 24.61-22.19 0-39.07-7.48-50.22-22.15-10.13-13.37-15.6-32.59-16.27-57.17 0-.19 0-90.73 0-90.73a11.42 11.42 0 0 1 11.4-11.44 11.6 11.6 0 0 1 6.09 1.81v72.28a3.74 3.74 0 1 0 7.47 0v-76.14a11.38 11.38 0 0 1 17.6-9.61v1.36 75.87a3.72 3.72 0 0 0 7.44.12v-76a12.77 12.77 0 0 1 .79-4.14 11.58 11.58 0 0 1 10.7-7.27 11.42 11.42 0 0 1 10.66 7.39 18.75 18.75 0 0 0 -4.55 12.28v67.29a3.72 3.72 0 0 0 7.44 0v-67.29a11.44 11.44 0 0 1 3.73-8.44 11.24 11.24 0 0 1 7.69-3 11.46 11.46 0 0 1 11.43 11.45v71.28a3 3 0 0 0 .09.73 5.87 5.87 0 0 0 11.7-.73v-23.89a12.22 12.22 0 1 1 24.44 0z"/><path d="m129.41 62.3a12.29 12.29 0 0 0 -12.22 12.24v23.89a5.87 5.87 0 0 1 -11.7.73 3 3 0 0 1 -.09-.73v-71.28a11.46 11.46 0 0 0 -11.4-11.46 11.24 11.24 0 0 0 -7.69 3 11.44 11.44 0 0 0 -3.74 8.44v67.3a3.73 3.73 0 0 1 -7.45 0v-67.29a18.7 18.7 0 0 1 4.55-12.28 11.42 11.42 0 0 0 -10.73-7.39 11.57 11.57 0 0 0 -10.68 7.28 13.05 13.05 0 0 0 -.8 4.14v75.87a3.72 3.72 0 1 1 -7.44.13v-76c0-.46 0-.87 0-1.35a11.25 11.25 0 0 0 -6.16-1.86 11.46 11.46 0 0 0 -11.38 11.46v76.11a3.74 3.74 0 1 1 -7.47 0v-72.25a11.61 11.61 0 0 0 -6.12-1.78 11.42 11.42 0 0 0 -11.4 11.41s0 90.54 0 90.74c.67 24.57 6.14 43.79 16.27 57.16 11.15 14.68 28 22.15 50.22 22.15 23 0 40.44-8.28 51.74-24.6 10.56-15.24 15.91-37.35 15.91-65.59v-45.95a12.25 12.25 0 0 0 -12.22-12.24z" fill="#fcc800"/><path d="m107.76 142.92a23.63 23.63 0 0 1 3.61 1.85 13.56 13.56 0 0 0 -1.55 2.48 27.51 27.51 0 0 0 -3.51-1.88z"/><path d="m79.76 178.62.09-.18a15.75 15.75 0 0 1 1.53-2.56l.07-.13-.13-.1a22 22 0 0 0 -3.89-2.36l-.11-.07-.07.13-1.44 2.65.13.1a18.93 18.93 0 0 1 3.65 2.35z"/><path d="m79.73 179.22-.2-.18v.24a28.94 28.94 0 0 1 -3.1 7.18l-.08.1 2.64 2.1a.68.68 0 0 0 .5.18.38.38 0 0 0 .37-.39 1.68 1.68 0 0 0 -.19-.66 54.16 54.16 0 0 0 2.48-6.37l.06-.1-.08-.07a11 11 0 0 1 -2.4-2.03z"/><path d="m78.92 167.93-.13-.06-.05.09-1.8 2.5.13.13a32 32 0 0 1 3.14 2.68l.14.14.3-.49.35-.57 1.21-1.71-.08-.08a18 18 0 0 0 -3.21-2.63z"/><path d="m82.29 171.47h4.1v1.83h-4.13v8 7.13h2.9v-.66h7.74v.67h2.84v-15.14h-4.39v-1.84h4.57v-2.7h-13.63zm10.6 13.74h-7.76v-1.13h7.76zm-1.54-9.38h1.53v2.66h-.16c-1 0-1.37 0-1.37-.6zm-3.07-4.36h1.26v1.84h-1.26zm0 4.36h1.24v3.76a1.25 1.25 0 0 0 1.1 1.39 1.33 1.33 0 0 0 .2 0h2v1h-7.69v-1.95a3.92 3.92 0 0 1 1.52 1.12 11.22 11.22 0 0 0 1.65-5.34zm-2.1 1.62a2.53 2.53 0 0 1 -1 1.64v-3.26h1.23a7.38 7.38 0 0 1 -.18 1.62z"/><path d="m67.8 181.79a20.06 20.06 0 0 1 -1.34-5.66v-.13h.1c.13 0 .4-.17.41-.34s-.08-.11-.29-.1c0 0-2.4-.13-2.67-.13a27.35 27.35 0 0 1 -.19 4.7 9.51 9.51 0 0 1 -3.14 5.66l-.18.15v-.22a15.07 15.07 0 0 0 -1.78-3.84l-.2-.23h1.64v-4.64a3.82 3.82 0 0 1 1.94 1.12 14.37 14.37 0 0 0 1.9-4.13h4l-.05.15a32.17 32.17 0 0 1 -.76 3.2 9 9 0 0 1 2.24.88l.16.12.07-.19a53.94 53.94 0 0 0 1.34-5.89v-.08l-1.22-1.09h-5c.06-.32.34-1.59.38-1.74s.48 0 .48-.36a.43.43 0 0 0 -.43-.4l-2.49-.55a26.87 26.87 0 0 1 -2.28 7.58l-.35.48v-2.25h-2.53v-.86a.36.36 0 0 0 .36-.35c0-.17-.1-.25-.34-.26l-2.28-.09s.54-.65 1.26-1.46a14.23 14.23 0 0 0 3.1 2.85l.14-.24a9.32 9.32 0 0 1 1.45-2 22.63 22.63 0 0 1 -3-2.47s.19-.15.19-.22c0-.28-.12-.32-.41-.38l-2.74-.6v.1a14.6 14.6 0 0 1 -2 2.51 10.21 10.21 0 0 1 -3 2.31l-.21.15.2.15a6.35 6.35 0 0 1 1.72 2.08v10c-.19.06-1.42.37-1.42.37l.66 2.63c0 .22.13.51.41.51a.82.82 0 0 0 .52-.3s4.64-1.47 5.46-1.68c0 .21.33 1.3.33 1.3s1.64-.56 1.78-.62a16.23 16.23 0 0 1 1.5 1.71l.06.1.12-.08a10.73 10.73 0 0 0 4.08-5.15 14.26 14.26 0 0 0 3.3 5.07l.1.07.21-.24 1.89-1.7.36-.3-.11-.1a14.81 14.81 0 0 1 -3.45-4.88zm-10.21-6v1.34h-2.76v-1.33zm-2.32-3.39v1.49h-1.65zm-.44 5.82h2.76v1.34h-2.76zm1.42 4.32c0 .08.52 1.07.65 1.42a11 11 0 0 1 -2 .56v-2.94h3.35l-2 .94z"/><path d="m40.61 137.07c3.61 0 7.82-1.68 7.82-6.28a5.36 5.36 0 0 0 -3.92-5.12l-4.58-1.23-.76-.18c-1.67-.47-1.88-1.37-1.89-2 0-1.82 2.25-2 2.95-2 2.25 0 3.41.93 3.55 2.84v.44c0-.06 4.11 0 4.11 0v-.47c0-3.78-3-6.34-7.56-6.32-3.47 0-7.2 1.83-7.2 5.87 0 1.77.77 4.12 4.43 5.11l2.46.66c1.22.31 2.2.56 3 .86a1.78 1.78 0 0 1 1.26 1.86c0 1.49-1.31 2.36-3.47 2.35-1.61 0-4.24-.45-4.25-3.5v-.46h-4.11v.46c.08 4.45 3.13 7.11 8.16 7.11z"/><path d="m56.84 136.64s4.15 0 4.15 0v-15.73h5.9v-3.71c0 .05-15.86 0-15.9 0v3.7h5.85z"/><path d="m87.43 127c0-6-3.8-10.15-9.27-10.13s-9.33 4.15-9.33 10.12 3.82 10.14 9.32 10.14 9.32-4.21 9.28-10.13zm-14.43 0c0-3.07 1.34-6.62 5.19-6.61s5.14 3.54 5.17 6.61-1.37 6.57-5.18 6.58-5.18-3.58-5.18-6.58z"/><path d="m106.89 123.4c0-1.84-.62-6.19-6.75-6.19h-8.59v19.42s4.13 0 4.13 0v-7.1h4.46a6.81 6.81 0 0 0 5.11-1.75 6 6 0 0 0 1.64-4.38zm-6.89 2.6h-4.3v-5.19h4.3c1.9 0 2.74.82 2.75 2.59a2.52 2.52 0 0 1 -2.41 2.62 2.55 2.55 0 0 1 -.39 0z"/><path d="m115.65 136.64v-4.13h-4.36v4.13s4.36 0 4.36 0z"/><path d="m114.63 130.66c0-.06.88-7.53.9-7.6v-5.84s-4.08 0-4.12 0v5.78c0 .07.92 7.67.92 7.67z"/><path d="m106.2 147.87a26.07 26.07 0 0 1 3.73 2.07 22.89 22.89 0 0 0 -1.6 2.75 22.8 22.8 0 0 0 -3.64-2.13z"/><path d="m64.92 156.25a12.9 12.9 0 0 1 -1.32 2.49 10.45 10.45 0 0 0 -1.75-.77 17.07 17.07 0 0 1 -1.74 4.95 12.32 12.32 0 0 0 -2.77-1.37 14.83 14.83 0 0 0 1.86-7.93v-3.85h10.12c0-.4 0-.81 0-1.14h-10.9v-2.23h3.31v-3.21l3.09.14c.31 0 .41.11.41.29s-.17.38-.52.52v2.26h2.11v-4l3 .18c.24 0 .5 0 .5.28s-.13.35-.59.57v.15h5.9v1.88h-5.91v.92h8.47v2.23h-1.85a9.86 9.86 0 0 1 .65 1.14h1v2.13h-2.81l1.54.73c.18.09.35.18.35.36s-.26.31-.53.38a20.49 20.49 0 0 1 -2.4 4.5c.38.69 1.13 1.86 1.6 1.86.62 0 .7-2.23.72-2.61a6.53 6.53 0 0 0 2.39 1.48c-.55 4.55-1.77 4.45-2.48 4.45-1.93 0-3.55-2.16-4.13-3a16.1 16.1 0 0 1 -3.9 2.9 7.33 7.33 0 0 0 -1.71-1.93 6.89 6.89 0 0 1 -2.95.38 6.33 6.33 0 0 0 -.5-2.43 6.54 6.54 0 0 0 1.45.23c.32 0 .26-.13.26-.51zm2.38 3.34c0 .27 0 .83-.32 1a14.87 14.87 0 0 0 4.02-2.95 19.5 19.5 0 0 1 -1.53-5.75h-7.25v1.73a22.13 22.13 0 0 1 -.32 4.07 13.87 13.87 0 0 0 1.23-2.58l1.77.69v-1.37h-2v-1.7h6.14v1.7h-1.73v1.34l1.83-.72a8.61 8.61 0 0 1 1 2.48 8 8 0 0 0 -1.89 1.07 14.68 14.68 0 0 0 -.94-2.73zm5.15-11c-.11.13-.13.1-.42.14v1h2.5a10.18 10.18 0 0 0 -.58-1.14zm-.28 3.26a13.45 13.45 0 0 0 .69 3.14 14.8 14.8 0 0 0 1.35-3.14z"/><path d="m105.22 160.92a31.5 31.5 0 0 0 3-7.88 8 8 0 0 0 2.71 1.86 67.88 67.88 0 0 1 -2.26 6.81 1.51 1.51 0 0 1 .22.6.2.2 0 0 1 -.22.18.57.57 0 0 1 -.29 0z"/><path d="m120.48 157.31v-2.41l1.53.2c.36 0 .47.11.47.22s-.22.29-.49.35v3.66h-5.5v1.42h-1.49v-5.85l1.52.15c.2 0 .45.09.45.27s-.13.24-.45.35v1.64h.78v-3.49h-3.15v9.06h-2.76v-11.32h5.9v-1.18h-6.12v-2.22h3.41v-1.29h-2.48v-2.35h2.48v-1.84l3 .15c.24 0 .36 0 .36.16s-.2.41-.54.5v1h2.14v-1.84l3.07.07c.24 0 .32 0 .32.17s-.14.39-.52.49v1.11h2.7v2.35h-2.7v1.29h3.41v2.22h-6.08v1.18h5.76v9.1c0 2.2-1 2.4-3.76 2.37a8.73 8.73 0 0 0 -1-3 10.15 10.15 0 0 0 1.65.17c.47 0 .53-.09.53-.67v-5.73h-3.19v3.48zm-3.11-10.44v1.29h2.11v-1.29z"/><path d="m99.23 157.59a17 17 0 0 1 -4-4.34h6.61v-2.92h-8v-2.33h6.94v-3h-6.98v-1.45c.25-.17.4-.36.4-.54s-.34-.37-.57-.38l-3.17-.06v2.43c-.32 0-7 0-7 0v3h7v2.34h-8.07v2.91h6.52a16.86 16.86 0 0 1 -2.52 3.19 15.81 15.81 0 0 1 -4.28 3l-.25.13.23.15a6.34 6.34 0 0 1 2.24 2.44l.06.11.1-.07a10 10 0 0 0 2.82-1.95 18.28 18.28 0 0 0 3.15-3.54v6.29h3.34v-6.3a16.77 16.77 0 0 0 1.88 2.24 21.71 21.71 0 0 0 4.15 3.37h.14l.1-.12a7.79 7.79 0 0 1 2.25-2.29l.24-.14-.27-.11a15.57 15.57 0 0 1 -3.06-2.06z"/><path d="m55.13 153.16c0 2.2-.53 9.22-7.62 9.22a6.92 6.92 0 0 1 -6-2.95c-1.19-1.74-1.6-4.87-1.6-6.86 0-2.2.52-9.22 7.63-9.22 6.65 0 7.59 6.09 7.59 9.81zm-11-.3c0 .76 0 6.06 3.38 6.06s3.36-5.28 3.36-6.06 0-6.06-3.36-6.06-3.38 5.24-3.38 6.07z"/><path d="m38 161.88h-15.41c.3-4 2.54-5.65 7.39-8.94 3.68-2.51 3.68-3 3.68-4 0-1.71-1.83-2.15-3-2.15-3.09 0-3.41 2.2-3.5 3.68h-4.25a6.92 6.92 0 0 1 1.42-4.55 7.76 7.76 0 0 1 6.34-2.56c5.23 0 7.13 2.88 7.13 5.51a5.37 5.37 0 0 1 -1 3.13c-1.17 1.63-5.79 4.58-6 4.74a12.4 12.4 0 0 0 -2.33 1.76h9.53z"/></svg>